<?xml version="1.0" standalone="no"?>
<!DOCTYPE svg PUBLIC "-//W3C//DTD SVG 20010904//EN"
 "http://www.w3.org/TR/2001/REC-SVG-20010904/DTD/svg10.dtd">
<svg version="1.0" xmlns="http://www.w3.org/2000/svg"
 width="2048.000000pt" height="2048.000000pt" viewBox="0 0 2048.000000 2048.000000"
 preserveAspectRatio="xMidYMid meet">
<metadata>
Created by potrace 1.14, written by Peter Selinger 2001-2017
</metadata>
<g transform="translate(0.000000,2048.000000) scale(0.100000,-0.100000)"
fill="#000000" stroke="none">
<path d="M10398 16665 c-1 -1 -68 -6 -148 -9 -80 -4 -161 -9 -180 -11 -19 -2
-69 -6 -110 -10 -41 -3 -89 -7 -105 -9 -17 -2 -64 -7 -105 -11 -41 -3 -82 -8
-90 -10 -8 -2 -51 -7 -94 -10 -43 -4 -87 -8 -98 -10 -10 -2 -51 -7 -91 -10
-39 -3 -88 -8 -107 -10 -19 -2 -60 -7 -90 -10 -52 -6 -87 -10 -170 -20 -19 -3
-58 -7 -86 -10 -28 -3 -60 -7 -71 -9 -11 -3 -44 -7 -74 -11 -30 -3 -79 -10
-109 -15 -30 -5 -73 -12 -95 -16 -34 -5 -307 -58 -355 -69 -330 -76 -708 -199
-975 -317 -38 -17 -83 -36 -100 -43 -186 -78 -486 -231 -680 -347 -123 -74
-338 -216 -380 -250 -5 -5 -55 -43 -110 -85 -212 -162 -483 -416 -690 -648
-349 -391 -551 -533 -1010 -714 -239 -94 -338 -160 -436 -292 -84 -114 -144
-253 -164 -379 -4 -25 -9 -54 -11 -65 -2 -11 -7 -99 -9 -195 -6 -199 -17 -287
-45 -371 -34 -99 -65 -138 -209 -257 -75 -62 -152 -126 -171 -143 -19 -17 -57
-50 -84 -73 -26 -22 -61 -52 -76 -66 -15 -14 -40 -36 -56 -50 -251 -216 -454
-409 -528 -502 -102 -130 -172 -314 -182 -483 -10 -169 -21 -243 -69 -435 -12
-48 -62 -186 -92 -250 -137 -296 -188 -443 -219 -634 -2 -17 -10 -67 -18 -111
-7 -44 -14 -132 -15 -195 -1 -63 -5 -117 -7 -120 -5 -4 -228 -7 -1144 -11
-267 -1 -490 -4 -497 -6 -9 -3 -11 -661 -8 -2743 1 -1506 5 -2743 8 -2748 4
-5 1878 -9 4629 -9 2543 -1 7055 -2 10028 -3 2973 -1 5415 -1 5427 -1 l22 1 0
2748 0 2749 -712 1 c-392 0 -719 1 -728 1 -14 1 -16 11 -13 69 9 163 4 431
-11 560 -13 115 -17 141 -26 197 -66 400 -208 776 -444 1175 -243 410 -498
712 -888 1047 -350 301 -474 454 -565 696 -40 107 -40 105 -62 262 -36 250
-123 462 -269 656 -116 154 -375 412 -596 594 -26 22 -58 49 -71 60 -39 35
-366 299 -469 379 -55 43 -107 83 -116 90 -9 7 -76 56 -150 108 -260 185 -452
302 -834 513 -275 151 -560 285 -747 350 -147 52 -397 115 -513 130 -16 3 -64
9 -105 15 -41 6 -167 13 -280 15 -208 5 -401 13 -455 20 -16 2 -54 7 -84 10
-60 7 -62 8 -221 36 -63 11 -133 25 -155 31 -22 5 -51 12 -63 14 -25 5 -246
73 -400 123 -51 17 -121 38 -155 47 -68 17 -79 20 -167 39 -66 15 -144 28
-235 41 -27 3 -59 8 -70 10 -11 2 -87 7 -170 10 -82 3 -155 7 -162 9 -6 2 -13
2 -15 0z m312 -468 c14 -3 43 -8 65 -11 86 -12 123 -19 205 -37 47 -11 90 -21
95 -23 6 -2 24 -6 40 -10 17 -5 98 -30 180 -56 315 -102 467 -140 705 -179
239 -39 349 -47 735 -55 110 -3 211 -7 225 -10 14 -2 59 -10 100 -16 230 -33
494 -119 755 -244 146 -71 511 -264 587 -312 21 -13 40 -24 42 -24 19 0 557
-349 586 -380 3 -3 30 -23 60 -45 56 -40 250 -191 330 -257 390 -319 494 -410
661 -577 194 -195 279 -320 338 -501 20 -59 27 -99 47 -245 18 -137 88 -334
174 -489 116 -210 277 -390 575 -645 331 -283 536 -515 741 -836 176 -274 358
-666 400 -860 1 -5 9 -37 17 -70 16 -61 18 -69 36 -173 13 -75 18 -112 26
-197 4 -38 9 -83 11 -100 4 -38 4 -368 0 -415 -2 -19 -7 -73 -11 -120 -3 -47
-8 -94 -10 -105 -5 -25 -12 -73 -20 -150 -4 -33 -10 -79 -15 -102 l-7 -43 31
0 c17 -1 358 -1 757 -2 l726 0 0 -2299 c0 -2099 -1 -2299 -16 -2299 -42 -1
-10879 1 -14783 2 l-4408 1 -1 26 c0 14 -2 1050 -3 2302 l-3 2277 261 2 c144
1 530 3 859 5 329 2 600 5 602 6 1 2 -6 54 -16 114 -11 61 -22 124 -24 140 -3
17 -10 55 -15 85 -10 57 -6 342 5 395 54 260 74 323 167 519 61 130 146 360
162 436 31 148 54 268 54 280 0 8 3 42 6 75 3 33 8 92 11 130 10 119 54 197
188 330 62 61 147 142 190 180 44 39 89 79 101 90 13 11 51 45 86 75 84 73
101 87 130 112 14 12 57 49 96 82 39 34 92 79 119 101 145 119 207 175 239
217 20 26 36 49 36 52 0 3 13 27 28 53 46 80 88 195 108 298 2 11 6 31 8 45 9
44 16 160 21 311 4 172 17 253 50 316 46 85 91 129 169 167 41 20 77 36 80 36
18 0 260 102 359 151 309 155 511 315 812 643 280 307 476 491 715 672 266
202 601 401 910 539 58 26 128 57 155 70 28 12 113 47 190 78 180 71 179 70
185 72 3 0 55 17 115 37 263 88 637 177 900 213 22 3 52 8 67 11 14 3 43 7 65
9 21 2 52 6 68 9 17 2 59 8 95 11 36 4 72 9 80 10 8 1 49 6 90 10 41 4 82 9
90 10 8 2 51 6 95 10 44 3 91 8 105 10 14 2 52 6 85 10 33 3 76 8 95 10 19 2
61 6 93 9 88 9 169 17 205 21 18 2 74 7 125 11 50 3 94 8 96 10 6 5 481 -3
511 -9z"/>
<path d="M9668 15575 c-2 -1 -59 -5 -128 -9 -69 -3 -136 -8 -150 -10 -14 -3
-52 -7 -85 -10 -597 -61 -1264 -242 -1821 -496 -451 -206 -871 -460 -1279
-774 -49 -38 -95 -74 -100 -80 -6 -6 -35 -31 -65 -56 -91 -74 -198 -178 -401
-386 -137 -141 -195 -192 -299 -263 -108 -74 -163 -103 -330 -176 -170 -74
-260 -127 -325 -190 -135 -132 -191 -272 -210 -530 -4 -49 -9 -99 -11 -110 -2
-10 -6 -37 -9 -58 -9 -60 -44 -166 -75 -227 -56 -110 -131 -198 -320 -370 -92
-85 -207 -199 -285 -285 -180 -198 -411 -570 -530 -855 -103 -246 -203 -590
-231 -795 -3 -27 -8 -59 -10 -70 -2 -11 -7 -49 -10 -85 -4 -36 -10 -86 -14
-112 -10 -64 -10 -473 0 -526 14 -81 89 -124 163 -95 46 19 66 61 61 128 -12
157 -1 489 21 605 2 14 7 45 10 70 3 25 7 55 9 66 2 12 7 39 10 60 4 22 20 95
37 164 145 590 448 1120 860 1501 319 296 401 398 476 594 43 112 62 212 78
415 15 188 67 300 180 385 55 41 81 54 230 118 307 131 433 222 755 548 239
241 356 345 576 509 430 323 930 604 1394 785 116 45 453 160 500 170 8 2 65
17 125 33 115 32 258 67 335 82 108 22 162 32 180 35 57 8 107 17 120 20 8 2
39 7 69 10 30 4 63 9 75 11 11 2 52 6 91 10 38 3 78 8 88 10 113 21 683 21
792 -1 11 -2 52 -7 91 -10 39 -3 81 -7 92 -10 11 -2 49 -6 84 -10 35 -3 77 -8
93 -10 64 -8 158 -17 300 -30 33 -3 80 -7 105 -10 25 -2 88 -7 140 -10 52 -3
122 -8 155 -10 175 -12 241 -16 355 -20 69 -3 179 -7 245 -10 186 -7 327 -15
365 -20 19 -2 64 -7 100 -11 36 -3 74 -8 85 -10 11 -2 49 -9 85 -15 36 -5 81
-14 100 -19 19 -5 49 -11 65 -14 37 -7 216 -59 300 -88 65 -22 267 -104 294
-118 9 -5 66 -33 126 -63 113 -55 149 -74 345 -185 625 -351 1293 -847 1735
-1287 165 -163 192 -195 262 -300 79 -118 128 -236 188 -455 106 -386 184
-500 540 -787 275 -222 446 -412 609 -678 37 -60 71 -117 76 -125 21 -34 125
-251 155 -325 94 -227 187 -563 211 -761 2 -23 7 -52 9 -64 26 -133 25 -645
-1 -772 -19 -97 4 -153 75 -178 39 -14 45 -13 79 5 57 31 72 78 87 287 5 68 6
419 1 478 -29 367 -104 697 -231 1025 -214 550 -489 932 -922 1284 -343 277
-382 337 -489 736 -56 210 -107 323 -222 490 -143 208 -329 389 -763 741 -427
347 -924 690 -1299 896 -25 14 -71 40 -104 58 -113 62 -316 160 -448 216 -130
55 -453 167 -513 178 -16 3 -58 12 -92 20 -34 9 -77 18 -95 21 -18 3 -44 7
-58 10 -14 3 -41 7 -60 10 -19 3 -46 7 -60 10 -31 5 -103 13 -190 20 -36 3
-92 7 -125 10 -77 6 -229 14 -375 20 -265 10 -379 15 -445 20 -38 2 -113 7
-166 10 -54 3 -121 7 -150 10 -122 11 -213 20 -312 31 -32 3 -73 7 -92 9 -40
4 -141 15 -175 20 -14 2 -61 7 -105 11 -44 3 -89 8 -100 11 -22 5 -502 13
-507 8z"/>
<path d="M10209 14946 c-2 -2 -60 -7 -129 -10 -69 -4 -141 -9 -160 -11 -19 -2
-71 -6 -115 -10 -44 -4 -93 -8 -110 -11 -16 -2 -70 -8 -120 -14 -107 -13 -174
-21 -195 -25 -16 -3 -89 -14 -130 -20 -86 -13 -232 -39 -340 -62 -69 -14 -129
-26 -135 -27 -336 -68 -781 -209 -1130 -358 -557 -239 -1024 -551 -1335 -894
-85 -93 -153 -184 -202 -269 -22 -38 -52 -88 -67 -110 -74 -113 -214 -219
-386 -294 -247 -107 -339 -158 -412 -228 -84 -81 -120 -161 -169 -378 -37
-165 -67 -271 -91 -325 -117 -261 -240 -455 -538 -845 -213 -280 -290 -396
-375 -570 -129 -265 -213 -546 -245 -820 -3 -27 -8 -63 -10 -80 -14 -95 -25
-427 -17 -500 11 -94 135 -132 201 -61 21 22 22 33 27 232 2 115 6 227 9 249
12 109 22 182 30 225 3 14 7 39 10 55 10 63 57 243 87 329 83 246 201 456 407
730 63 83 149 196 190 251 109 145 249 355 312 470 127 231 164 332 234 650
38 171 64 213 170 279 62 39 67 41 247 120 295 128 429 241 570 483 82 141
168 245 325 392 225 211 467 376 808 552 430 221 864 373 1405 492 113 25 223
48 245 52 22 4 50 9 63 11 103 18 141 24 167 28 57 9 120 18 136 21 8 2 40 6
70 9 30 3 63 8 75 10 12 2 57 7 100 11 43 4 86 9 94 10 9 2 60 6 115 10 55 4
111 9 125 10 170 21 784 21 1035 0 231 -19 278 -24 460 -50 116 -17 134 -19
230 -36 176 -30 530 -114 608 -144 20 -8 37 -13 37 -10 0 2 12 0 28 -6 15 -6
34 -12 42 -14 28 -7 214 -72 320 -113 594 -227 1187 -606 1789 -1140 149 -132
181 -162 282 -263 126 -127 223 -253 283 -369 56 -107 77 -164 116 -315 36
-136 64 -210 114 -299 91 -161 172 -245 421 -431 113 -85 227 -181 282 -236
331 -337 519 -775 618 -1444 3 -22 7 -132 10 -245 3 -187 0 -256 -21 -420 -13
-105 -10 -128 20 -163 41 -48 132 -45 174 6 50 59 75 674 37 886 -1 9 -6 39
-9 66 -4 28 -9 64 -12 80 -7 46 -53 245 -65 285 -5 19 -12 45 -15 57 -12 60
-108 330 -152 429 -165 369 -353 599 -702 858 -323 239 -407 352 -483 647
-109 419 -304 676 -862 1137 -22 19 -147 123 -182 153 -157 131 -415 322 -603
444 -442 289 -954 516 -1496 665 -233 63 -576 135 -774 160 -47 6 -96 13 -110
15 -34 5 -113 14 -180 20 -30 3 -77 8 -105 10 -27 3 -86 8 -130 11 -88 7 -811
15 -816 10z"/>
<path d="M9378 14185 c-2 -1 -42 -5 -89 -9 -47 -4 -95 -8 -105 -10 -10 -2 -39
-7 -64 -10 -64 -9 -85 -13 -282 -52 -215 -43 -202 -40 -263 -54 -652 -147
-982 -322 -1244 -660 -36 -47 -68 -87 -71 -90 -3 -3 -30 -39 -60 -80 -30 -41
-62 -84 -72 -95 -9 -11 -42 -51 -73 -90 -182 -225 -357 -365 -555 -444 -217
-87 -344 -169 -486 -314 -83 -84 -202 -231 -276 -341 -23 -33 -44 -63 -48 -66
-3 -3 -59 -86 -124 -185 -313 -475 -486 -776 -725 -1260 -134 -272 -215 -466
-235 -565 -9 -46 -15 -71 -20 -88 -3 -9 -8 -44 -12 -77 -3 -33 -8 -69 -10 -80
-7 -31 -6 -233 1 -300 16 -158 46 -302 72 -346 49 -83 203 -38 203 59 0 20 -5
55 -10 77 -11 44 -38 212 -38 235 -2 148 -2 259 2 275 2 11 7 41 10 67 12 91
54 234 101 343 85 202 281 589 424 840 74 129 111 192 174 295 39 63 79 131
91 150 45 78 354 532 431 635 90 120 184 215 285 289 54 40 130 86 150 91 3 1
28 12 55 24 28 12 84 36 125 54 141 58 274 152 414 292 137 136 184 193 394
470 136 181 229 276 352 357 165 107 349 181 660 263 3 1 32 7 65 15 79 18 66
15 185 43 90 21 150 34 290 62 166 33 398 58 545 57 72 0 260 -10 292 -16 10
-2 41 -7 68 -10 71 -10 114 -17 139 -22 35 -6 232 -47 286 -59 14 -3 36 -7 50
-10 26 -5 110 -21 145 -28 11 -3 54 -10 95 -17 41 -6 86 -13 100 -16 73 -12
191 -19 320 -18 137 0 325 10 353 19 6 2 37 6 67 10 30 3 82 10 115 15 33 5
78 12 100 16 22 3 43 8 46 10 12 7 187 18 289 18 266 1 474 -55 677 -180 95
-59 455 -306 518 -356 6 -4 75 -58 155 -119 506 -389 1029 -885 1113 -1057 17
-36 43 -120 51 -167 40 -241 53 -287 117 -417 66 -134 145 -231 316 -384 122
-110 260 -248 319 -319 228 -274 416 -637 533 -1024 39 -130 93 -353 106 -436
17 -113 25 -177 30 -245 9 -108 11 -115 36 -149 40 -55 128 -54 175 2 25 30
26 34 20 122 -4 50 -9 102 -11 116 -2 13 -9 62 -15 109 -49 367 -176 764 -367
1144 -164 327 -354 569 -643 821 -258 225 -347 376 -384 652 -11 82 -47 208
-78 271 -49 102 -140 214 -318 392 -167 167 -186 185 -340 319 -47 41 -87 77
-90 80 -3 3 -30 26 -60 51 -30 25 -64 53 -75 62 -92 77 -218 179 -246 198 -19
13 -36 27 -39 31 -7 9 -303 227 -380 280 -36 24 -67 46 -70 49 -16 16 -275
184 -330 214 -110 59 -310 127 -420 142 -25 3 -48 8 -51 10 -9 5 -170 17 -234
17 -69 0 -245 -12 -254 -17 -3 -2 -31 -7 -61 -10 -30 -4 -80 -11 -110 -16 -72
-12 -118 -19 -182 -26 -29 -3 -73 -10 -98 -14 -47 -9 -470 -5 -530 4 -19 3
-51 8 -70 10 -82 11 -123 19 -260 47 -80 16 -165 34 -190 40 -51 11 -63 13
-175 34 -118 22 -134 24 -300 44 -64 8 -409 13 -417 6z"/>
<path d="M9047 13524 c-1 -1 -36 -4 -78 -8 -154 -13 -363 -80 -511 -165 -211
-121 -514 -382 -742 -641 -284 -323 -432 -461 -741 -691 -77 -57 -149 -111
-160 -121 -11 -9 -56 -45 -100 -80 -44 -34 -91 -73 -105 -85 -14 -12 -36 -31
-50 -43 -437 -375 -796 -821 -1012 -1253 -86 -173 -183 -421 -213 -544 -3 -10
-16 -63 -30 -118 -13 -55 -27 -118 -30 -140 -2 -22 -7 -49 -9 -60 -3 -18 -14
-100 -23 -185 -2 -19 -6 -107 -10 -196 l-6 -161 29 -31 c35 -38 89 -48 140
-27 46 19 61 59 62 160 1 83 10 242 17 285 2 14 9 57 15 95 16 105 21 128 25
134 2 4 6 26 10 49 13 90 94 340 157 487 163 378 399 715 743 1061 248 249
305 298 725 621 129 100 260 203 290 229 79 68 295 287 367 369 33 39 81 95
107 125 108 125 318 321 461 428 219 165 393 245 580 269 111 13 322 8 465
-12 19 -3 55 -7 80 -10 25 -3 56 -7 70 -10 14 -2 50 -6 80 -10 30 -4 66 -8 80
-10 43 -6 149 -18 265 -30 33 -4 74 -8 90 -10 17 -2 59 -6 95 -10 36 -3 81 -8
100 -10 19 -2 73 -7 120 -11 47 -3 92 -7 100 -9 8 -2 62 -6 120 -10 58 -3 119
-8 135 -10 26 -3 139 -9 345 -20 30 -2 219 -4 420 -5 397 -2 441 -6 603 -60
88 -30 229 -97 235 -112 2 -5 8 -8 13 -8 29 0 488 -338 792 -582 538 -433 685
-611 853 -1036 136 -345 256 -541 543 -887 192 -231 286 -376 355 -545 10 -25
24 -58 31 -75 21 -48 82 -263 99 -350 26 -133 41 -241 51 -369 4 -44 11 -90
15 -102 12 -29 46 -52 90 -59 74 -11 131 51 124 138 -23 325 -83 604 -184 857
-40 101 -116 258 -150 310 -97 148 -142 209 -210 290 -187 219 -241 291 -359
475 -52 80 -146 273 -184 375 -49 131 -94 235 -130 300 -29 54 -110 180 -134
210 -6 8 -41 51 -76 95 -126 157 -351 364 -640 587 -73 56 -202 156 -287 223
-239 187 -324 247 -520 365 -37 22 -142 71 -214 100 -69 27 -125 43 -271 76
-16 4 -190 8 -385 9 -312 2 -578 10 -705 20 -22 2 -87 6 -145 10 -58 3 -116 8
-130 10 -14 2 -70 7 -125 11 -55 3 -107 8 -116 9 -9 2 -52 6 -95 10 -43 4 -90
8 -104 10 -14 2 -61 7 -105 11 -44 3 -82 7 -85 9 -3 2 -41 6 -85 10 -44 4 -82
9 -85 10 -3 2 -39 6 -80 10 -41 4 -83 9 -93 11 -32 6 -241 33 -307 40 -62 6
-267 13 -273 8z"/>
<path d="M9687 12763 c-1 -1 -65 -4 -142 -7 -153 -6 -228 -12 -375 -32 -364
-49 -670 -205 -944 -480 -45 -45 -116 -120 -311 -328 -261 -279 -491 -502
-745 -721 -143 -123 -288 -269 -375 -377 -62 -78 -176 -238 -201 -283 -6 -11
-37 -63 -69 -115 -168 -275 -364 -729 -464 -1075 -69 -240 -80 -299 -62 -344
16 -37 64 -63 115 -63 63 1 86 33 120 172 52 207 164 536 237 697 10 23 19 45
19 48 0 13 158 322 215 420 73 127 201 320 273 410 79 100 185 205 392 384 47
41 90 79 96 85 6 6 42 38 80 71 91 79 411 399 549 550 315 342 386 410 520
500 218 145 367 195 714 239 194 25 671 26 866 2 17 -2 62 -7 100 -10 39 -4
77 -9 85 -11 8 -2 51 -7 94 -10 44 -3 93 -8 110 -10 17 -2 60 -6 96 -9 36 -4
85 -8 110 -11 25 -2 79 -7 120 -10 41 -3 95 -7 120 -10 25 -2 92 -7 150 -10
58 -4 132 -8 165 -10 33 -2 114 -6 180 -9 367 -18 464 -36 640 -122 150 -73
219 -118 355 -232 95 -80 421 -397 495 -483 22 -25 53 -61 70 -80 60 -68 191
-250 251 -346 66 -105 111 -190 227 -428 112 -231 243 -409 404 -550 163 -144
227 -215 271 -305 73 -147 106 -316 106 -545 0 -106 -12 -307 -19 -313 -2 -3
2 -16 9 -31 60 -114 203 -88 220 40 14 97 17 166 17 322 0 95 -2 181 -5 192
-2 11 -7 43 -10 70 -25 187 -92 360 -194 499 -41 56 -61 77 -182 186 -108 97
-118 107 -196 198 -74 88 -68 79 -115 152 -38 58 -68 115 -197 375 -168 340
-346 580 -684 920 -341 344 -551 501 -813 606 -152 61 -249 79 -505 93 -314
19 -431 25 -520 31 -154 11 -226 16 -265 20 -22 2 -76 7 -120 10 -44 4 -91 8
-105 10 -14 2 -50 6 -80 9 -118 11 -186 18 -200 21 -8 2 -51 6 -95 10 -44 4
-93 8 -110 10 -76 10 -482 25 -488 18z"/>
<path d="M10548 11976 c-1 -2 -68 -6 -148 -10 -80 -3 -161 -8 -180 -11 -19 -2
-62 -7 -95 -10 -33 -3 -73 -8 -90 -11 -16 -2 -46 -6 -65 -8 -465 -58 -954
-224 -1334 -454 -441 -266 -918 -686 -1212 -1067 -184 -239 -381 -623 -478
-933 -45 -143 -96 -358 -101 -428 -8 -101 113 -160 187 -91 16 15 30 44 37 78
126 563 298 936 609 1325 90 113 309 338 421 434 35 30 80 69 100 86 478 408
933 643 1486 768 61 13 128 27 150 31 22 3 81 12 130 19 86 14 147 21 263 31
28 3 78 8 110 11 105 12 371 10 445 -2 40 -7 115 -22 167 -34 171 -39 224 -50
285 -57 83 -10 286 -9 370 1 163 20 264 4 393 -65 100 -53 172 -110 273 -216
101 -107 142 -167 194 -288 113 -259 239 -444 473 -690 155 -162 409 -484 506
-639 54 -85 100 -204 112 -285 3 -20 7 -43 10 -51 7 -19 6 -239 -1 -270 -18
-76 -18 -144 -1 -175 35 -64 114 -75 169 -22 29 27 36 43 47 107 15 83 19 294
8 380 -22 176 -86 343 -188 496 -29 43 -56 81 -59 84 -4 3 -14 17 -24 32 -31
50 -303 379 -377 458 -8 9 -46 50 -83 92 -37 41 -81 90 -98 109 -100 111 -217
307 -304 509 -89 205 -338 464 -550 572 -179 92 -319 117 -495 89 -149 -23
-299 -15 -485 26 -60 13 -123 26 -138 28 -16 3 -32 7 -36 9 -4 3 -30 8 -57 11
-27 4 -68 10 -91 15 -23 4 -80 8 -127 9 -48 1 -95 4 -105 6 -11 2 -21 2 -23 1z"/>
<path d="M10638 11215 c-1 -1 -79 -5 -173 -9 -248 -8 -351 -18 -551 -51 -482
-81 -1008 -290 -1361 -541 -305 -217 -560 -511 -741 -854 -113 -213 -250 -604
-245 -697 0 -7 1 -22 2 -32 0 -10 14 -33 30 -50 23 -25 37 -31 70 -31 77 0
109 31 129 125 40 189 148 464 257 653 167 289 362 504 655 720 113 83 376
221 550 287 203 78 525 171 653 190 23 4 62 10 87 15 25 5 70 11 100 15 30 3
73 8 95 11 22 3 189 7 370 9 368 4 473 -4 638 -46 156 -40 252 -83 397 -180
111 -74 302 -259 422 -410 77 -96 258 -358 258 -373 0 -4 11 -24 25 -46 38
-61 114 -213 170 -345 17 -40 93 -247 100 -275 46 -167 71 -270 68 -273 -2 -3
11 -21 30 -41 29 -30 41 -36 75 -36 23 0 52 5 66 11 27 13 56 64 56 99 0 39
-82 343 -110 405 -5 11 -14 38 -21 60 -30 99 -154 370 -236 515 -205 362 -507
714 -769 896 -147 102 -388 204 -550 233 -32 6 -75 13 -94 17 -58 10 -98 13
-265 19 -88 4 -165 8 -172 10 -6 2 -13 2 -15 0z"/>
<path d="M10020 10464 c-353 -37 -705 -172 -967 -370 -176 -133 -375 -359
-491 -556 -93 -158 -192 -396 -192 -460 0 -108 168 -143 213 -45 8 18 31 77
52 131 178 468 553 835 1007 985 98 32 240 68 305 76 21 3 67 9 103 14 65 9
397 8 435 -2 11 -3 43 -8 70 -11 263 -35 586 -181 775 -351 233 -209 358 -416
470 -780 5 -16 12 -48 16 -70 11 -72 28 -109 61 -131 73 -49 173 4 173 91 0
89 -81 357 -155 511 -188 391 -503 687 -900 846 -87 35 -244 81 -315 93 -19 3
-42 8 -50 10 -8 2 -40 7 -70 10 -30 3 -68 9 -85 11 -65 11 -346 10 -455 -2z"/>
<path d="M10157 9734 c-1 -1 -38 -5 -82 -9 -44 -4 -83 -8 -86 -10 -3 -2 -17
-6 -32 -9 -15 -4 -38 -8 -52 -11 -52 -11 -189 -65 -252 -100 -178 -98 -358
-278 -458 -460 -46 -83 -31 -161 37 -189 58 -25 121 -3 148 50 79 156 242 325
391 407 165 90 435 127 619 84 139 -33 225 -74 325 -154 82 -66 147 -150 201
-260 25 -50 57 -99 70 -108 70 -46 174 8 176 92 1 16 -17 65 -39 109 -179 362
-474 547 -901 567 -35 1 -64 2 -65 1z"/>
<path d="M12265 8249 c-282 -20 -503 -95 -685 -230 -129 -96 -213 -214 -268
-374 -70 -208 -38 -491 75 -662 159 -240 399 -365 953 -499 323 -78 452 -124
540 -192 108 -85 150 -163 154 -287 8 -234 -201 -418 -511 -453 -189 -21 -395
19 -497 97 -81 62 -136 135 -196 258 -34 71 -71 148 -83 172 -36 74 -85 130
-139 157 -129 65 -302 7 -363 -123 -52 -109 -27 -287 65 -460 200 -376 581
-566 1130 -564 69 0 141 2 160 5 19 3 62 8 95 11 138 15 304 65 436 131 325
162 507 447 512 799 3 197 -16 293 -85 427 -105 204 -298 340 -643 454 -76 24
-248 73 -383 109 -136 35 -274 71 -306 80 -86 23 -215 88 -269 136 -76 66
-101 118 -102 208 0 60 5 86 23 123 58 116 204 206 375 232 50 8 234 8 272 1
137 -27 198 -55 268 -123 51 -50 116 -142 163 -232 68 -132 132 -203 197 -221
81 -22 180 -8 233 33 63 49 112 122 121 182 2 17 6 40 7 51 12 72 -40 238
-104 331 -141 209 -378 349 -686 408 -90 17 -325 25 -459 15z"/>
<path d="M15904 8245 c-121 -28 -196 -114 -222 -255 -11 -58 -10 -1800 1
-1855 3 -16 11 -61 16 -100 11 -74 13 -81 30 -158 27 -116 111 -306 167 -377
41 -52 161 -168 207 -199 114 -78 309 -152 461 -177 21 -3 47 -7 57 -9 10 -2
49 -7 86 -10 37 -4 82 -9 98 -11 42 -6 352 -5 395 1 19 2 57 7 84 11 159 19
304 64 424 130 295 161 470 427 517 783 4 29 10 70 13 90 3 20 7 446 9 946 3
970 4 956 -45 1051 -102 199 -429 198 -530 -3 -43 -85 -44 -104 -47 -1035 -1
-491 -6 -911 -10 -933 -52 -290 -160 -441 -362 -510 -164 -55 -415 -55 -580 0
-218 74 -338 253 -369 555 -4 41 -8 460 -9 930 -1 470 -5 870 -9 888 -11 57
-38 116 -71 157 -64 79 -195 117 -311 90z"/>
<path d="M2577 8192 c-40 -7 -76 -17 -81 -23 -6 -5 -17 -9 -25 -9 -18 -1 -78
-54 -102 -90 -15 -24 -33 -71 -45 -121 -10 -39 -11 -2489 -1 -2544 22 -124 88
-206 194 -241 55 -18 103 -19 1013 -19 l955 0 56 26 c94 44 141 132 132 243
-9 99 -80 183 -176 207 -40 10 -229 13 -806 14 l-754 0 0 428 c0 235 3 430 6
433 3 4 316 7 694 8 674 2 689 3 733 23 86 40 132 115 132 215 0 63 -26 130
-65 167 -13 12 -50 31 -83 42 -58 21 -75 21 -736 21 l-678 0 -1 31 c-4 151 0
709 4 714 4 3 341 6 749 7 l743 1 53 24 c64 29 107 76 125 139 26 87 7 178
-49 236 -40 41 -83 62 -151 72 -26 4 -434 8 -906 8 -668 1 -874 -2 -930 -12z"/>
<path d="M6933 8193 c-158 -27 -240 -111 -261 -269 -10 -74 -8 -2439 2 -2514
9 -66 44 -146 79 -180 39 -40 105 -68 185 -80 72 -12 1146 -9 1217 3 17 3 50
8 75 11 114 17 276 68 375 119 160 82 331 242 441 414 156 244 237 588 235
993 -1 140 -10 272 -26 360 -3 14 -7 39 -10 55 -3 17 -7 41 -10 55 -3 14 -8
38 -10 53 -10 54 -67 213 -106 296 -106 227 -309 446 -514 554 -141 74 -317
117 -550 133 -185 13 -1041 10 -1122 -3z m1022 -497 c17 -3 44 -8 60 -10 221
-32 369 -123 480 -295 113 -175 150 -347 150 -701 0 -239 -6 -304 -46 -459
-63 -249 -193 -434 -366 -520 -130 -65 -203 -73 -625 -75 l-318 -2 0 41 c-1
52 -1 1959 0 2004 l0 33 318 -5 c174 -3 331 -7 347 -11z"/>
</g>
</svg>
